<svg xmlns="http://www.w3.org/2000/svg" width="760" height="480" viewBox="0 0 760 480">
<rect width="100%" height="100%" fill="white"/>
<line x1="70" y1="410" x2="730" y2="410" stroke="#222"/>
<line x1="70" y1="30" x2="70" y2="410" stroke="#222"/>
<line x1="136.0" y1="410" x2="136.0" y2="415" stroke="#222"/>
<text x="136.0" y="434" text-anchor="middle" font-size="13">0.01</text>
<line x1="202.0" y1="410" x2="202.0" y2="415" stroke="#222"/>
<text x="202.0" y="434" text-anchor="middle" font-size="13">0.02</text>
<line x1="400.0" y1="410" x2="400.0" y2="415" stroke="#222"/>
<text x="400.0" y="434" text-anchor="middle" font-size="13">0.05</text>
<line x1="730.0" y1="410" x2="730.0" y2="415" stroke="#222"/>
<text x="730.0" y="434" text-anchor="middle" font-size="13">0.10</text>
<line x1="65" y1="410.0" x2="70" y2="410.0" stroke="#222"/>
<text x="60" y="414.0" text-anchor="end" font-size="13">0.00</text>
<line x1="65" y1="348.7" x2="70" y2="348.7" stroke="#222"/>
<text x="60" y="352.7" text-anchor="end" font-size="13">0.10</text>
<line x1="65" y1="256.8" x2="70" y2="256.8" stroke="#222"/>
<text x="60" y="260.8" text-anchor="end" font-size="13">0.25</text>
<line x1="65" y1="146.5" x2="70" y2="146.5" stroke="#222"/>
<text x="60" y="150.5" text-anchor="end" font-size="13">0.43</text>
<line x1="65" y1="42.3" x2="70" y2="42.3" stroke="#222"/>
<text x="60" y="46.3" text-anchor="end" font-size="13">0.60</text>
<text x="380.0" y="460" text-anchor="middle" font-size="15">Accepted OpenOut target</text>
<text x="20" y="240.0" transform="rotate(-90 20 240.0)" text-anchor="middle" font-size="15">Semantic goodput</text>
<text x="380.0" y="20" text-anchor="middle" font-size="16" font-weight="600">OpenSemCom risk-goodput target curve</text>
<path d="M 136.0 45.5 L 202.0 43.9 L 400.0 42.9 L 730.0 42.9" fill="none" stroke="#1f77b4" stroke-width="3"/>
<circle cx="136.0" cy="45.5" r="4" fill="#1f77b4"/>
<circle cx="202.0" cy="43.9" r="4" fill="#1f77b4"/>
<circle cx="400.0" cy="42.9" r="4" fill="#1f77b4"/>
<circle cx="730.0" cy="42.9" r="4" fill="#1f77b4"/>
<line x1="560" y1="52" x2="590" y2="52" stroke="#1f77b4" stroke-width="3"/>
<text x="598" y="56" font-size="13">mild</text>
<path d="M 136.0 151.7 L 202.0 149.4 L 400.0 147.8 L 730.0 147.8" fill="none" stroke="#2ca02c" stroke-width="3"/>
<circle cx="136.0" cy="151.7" r="4" fill="#2ca02c"/>
<circle cx="202.0" cy="149.4" r="4" fill="#2ca02c"/>
<circle cx="400.0" cy="147.8" r="4" fill="#2ca02c"/>
<circle cx="730.0" cy="147.8" r="4" fill="#2ca02c"/>
<line x1="560" y1="74" x2="590" y2="74" stroke="#2ca02c" stroke-width="3"/>
<text x="598" y="78" font-size="13">medium</text>
<path d="M 136.0 261.6 L 202.0 259.0 L 400.0 257.6 L 730.0 257.2" fill="none" stroke="#d62728" stroke-width="3"/>
<circle cx="136.0" cy="261.6" r="4" fill="#d62728"/>
<circle cx="202.0" cy="259.0" r="4" fill="#d62728"/>
<circle cx="400.0" cy="257.6" r="4" fill="#d62728"/>
<circle cx="730.0" cy="257.2" r="4" fill="#d62728"/>
<line x1="560" y1="96" x2="590" y2="96" stroke="#d62728" stroke-width="3"/>
<text x="598" y="100" font-size="13">hard</text>
<path d="M 136.0 360.9 L 202.0 358.9 L 400.0 355.7 L 730.0 355.7" fill="none" stroke="#9467bd" stroke-width="3"/>
<circle cx="136.0" cy="360.9" r="4" fill="#9467bd"/>
<circle cx="202.0" cy="358.9" r="4" fill="#9467bd"/>
<circle cx="400.0" cy="355.7" r="4" fill="#9467bd"/>
<circle cx="730.0" cy="355.7" r="4" fill="#9467bd"/>
<line x1="560" y1="118" x2="590" y2="118" stroke="#9467bd" stroke-width="3"/>
<text x="598" y="122" font-size="13">extreme</text>
</svg>
