<svg xmlns="http://www.w3.org/2000/svg" width="820" height="430" viewBox="0 0 820 430">
<rect width="100%" height="100%" fill="white"/>
<text x="410" y="24" text-anchor="middle" font-size="16" font-weight="600">OpenSemCom measured-wireless safety-goodput</text>
<line x1="72" y1="360" x2="796" y2="360" stroke="#222"/>
<line x1="72" y1="38" x2="72" y2="360" stroke="#222"/>
<text x="72.0" y="382" text-anchor="middle" font-size="12">mild</text>
<text x="313.33333333333337" y="382" text-anchor="middle" font-size="12">medium</text>
<text x="554.6666666666667" y="382" text-anchor="middle" font-size="12">hard</text>
<text x="796.0" y="382" text-anchor="middle" font-size="12">extreme</text>
<line x1="68" y1="360.0" x2="796" y2="360.0" stroke="#ddd"/>
<text x="64" y="364.0" text-anchor="end" font-size="11">0.00</text>
<line x1="68" y1="285.7" x2="796" y2="285.7" stroke="#ddd"/>
<text x="64" y="289.7" text-anchor="end" font-size="11">0.15</text>
<line x1="68" y1="211.4" x2="796" y2="211.4" stroke="#ddd"/>
<text x="64" y="215.4" text-anchor="end" font-size="11">0.30</text>
<line x1="68" y1="137.1" x2="796" y2="137.1" stroke="#ddd"/>
<text x="64" y="141.1" text-anchor="end" font-size="11">0.45</text>
<line x1="68" y1="62.8" x2="796" y2="62.8" stroke="#ddd"/>
<text x="64" y="66.8" text-anchor="end" font-size="11">0.60</text>
<polyline fill="none" stroke="#1f77b4" stroke-width="2.2" points="72.0,63.0 313.3,148.1 554.7,236.8 796.0,315.5"/>
<circle cx="72.0" cy="63.0" r="3.5" fill="#1f77b4"/>
<circle cx="313.3" cy="148.1" r="3.5" fill="#1f77b4"/>
<circle cx="554.7" cy="236.8" r="3.5" fill="#1f77b4"/>
<circle cx="796.0" cy="315.5" r="3.5" fill="#1f77b4"/>
<polyline fill="none" stroke="#d62728" stroke-width="2.2" points="72.0,64.3 313.3,149.0 554.7,236.8 796.0,316.1"/>
<circle cx="72.0" cy="64.3" r="3.5" fill="#d62728"/>
<circle cx="313.3" cy="149.0" r="3.5" fill="#d62728"/>
<circle cx="554.7" cy="236.8" r="3.5" fill="#d62728"/>
<circle cx="796.0" cy="316.1" r="3.5" fill="#d62728"/>
<polyline fill="none" stroke="#2ca02c" stroke-width="2.2" points="72.0,63.0 313.3,147.9 554.7,236.3 796.0,316.0"/>
<circle cx="72.0" cy="63.0" r="3.5" fill="#2ca02c"/>
<circle cx="313.3" cy="147.9" r="3.5" fill="#2ca02c"/>
<circle cx="554.7" cy="236.3" r="3.5" fill="#2ca02c"/>
<circle cx="796.0" cy="316.0" r="3.5" fill="#2ca02c"/>
<polyline fill="none" stroke="#9467bd" stroke-width="2.2" points="72.0,65.3 313.3,149.7 554.7,237.4 796.0,315.7"/>
<circle cx="72.0" cy="65.3" r="3.5" fill="#9467bd"/>
<circle cx="313.3" cy="149.7" r="3.5" fill="#9467bd"/>
<circle cx="554.7" cy="237.4" r="3.5" fill="#9467bd"/>
<circle cx="796.0" cy="315.7" r="3.5" fill="#9467bd"/>
<line x1="630" y1="56" x2="655" y2="56" stroke="#1f77b4" stroke-width="2.2"/>
<text x="662" y="60" font-size="12">OpenSemCom</text>
<line x1="630" y1="76" x2="655" y2="76" stroke="#d62728" stroke-width="2.2"/>
<text x="662" y="80" font-size="12">DINOv3 OVR</text>
<line x1="630" y1="96" x2="655" y2="96" stroke="#2ca02c" stroke-width="2.2"/>
<text x="662" y="100" font-size="12">OpenCLIP OOD</text>
<line x1="630" y1="116" x2="655" y2="116" stroke="#9467bd" stroke-width="2.2"/>
<text x="662" y="120" font-size="12">SigLIP2 OOD</text>
<text x="410" y="410" text-anchor="middle" font-size="12">Severity ladder at accepted OpenOut <= 0.05</text>
<text transform="translate(16 220) rotate(-90)" text-anchor="middle" font-size="12">Semantic goodput</text>
</svg>
